<svg width="64" height="64" viewBox="0 0 64 64" fill="none" xmlns="http://www.w3.org/2000/svg">
  <defs>
    <linearGradient id="bg" x1="10" y1="8" x2="56" y2="58" gradientUnits="userSpaceOnUse">
      <stop stop-color="#132536" />
      <stop offset="0.6" stop-color="#1A2F44" />
      <stop offset="1" stop-color="#22556D" />
    </linearGradient>
    <linearGradient id="paper" x1="16" y1="15" x2="42" y2="52" gradientUnits="userSpaceOnUse">
      <stop stop-color="#FFFFFF" />
      <stop offset="1" stop-color="#E2E8F0" />
    </linearGradient>
  </defs>
  <rect x="4" y="4" width="56" height="56" rx="16" fill="url(#bg)" />
  <path d="M22 15H37.5L46 23.5V45C46 49.4183 42.4183 53 38 53H22C17.5817 53 14 49.4183 14 45V23C14 18.5817 17.5817 15 22 15Z" fill="url(#paper)" />
  <path d="M37.5 15V23.5H46" fill="#B8F4EE" />
  <rect x="20" y="28" width="18" height="3" rx="1.5" fill="#1A2F44" />
  <rect x="20" y="34" width="14" height="3" rx="1.5" fill="#38B2AC" />
  <rect x="20" y="40" width="10" height="3" rx="1.5" fill="#F6AD55" />
  <circle cx="43" cy="43" r="9" fill="#38B2AC" />
  <path d="M39 43.5L41.5 46L47 40" stroke="white" stroke-width="3" stroke-linecap="round" stroke-linejoin="round" />
  <circle cx="49.5" cy="18.5" r="3.5" fill="#F6AD55" />
</svg>
